<?xml version="1.0" standalone="no"?>
<!DOCTYPE svg PUBLIC "-//W3C//DTD SVG 20010904//EN"
 "http://www.w3.org/TR/2001/REC-SVG-20010904/DTD/svg10.dtd">
<svg version="1.0" xmlns="http://www.w3.org/2000/svg"
 width="512.000000pt" height="512.000000pt" viewBox="0 0 512.000000 512.000000"
 preserveAspectRatio="xMidYMid meet">
<metadata>
Created by potrace 1.11, written by Peter Selinger 2001-2013
</metadata>
<g transform="translate(0.000000,512.000000) scale(0.100000,-0.100000)"
fill="#000000" stroke="none">
<path d="M594 5110 c-238 -32 -441 -179 -542 -393 -17 -34 -35 -80 -41 -102
-16 -57 -16 -4053 0 -4110 63 -226 267 -421 506 -483 64 -16 194 -17 2023 -17
1829 0 1959 1 2023 17 252 65 450 263 515 516 16 62 17 205 17 2022 0 1817 -1
1960 -17 2022 -52 202 -190 373 -373 462 -156 76 24 70 -2125 72 -1059 1
-1953 -2 -1986 -6z m2511 -660 c341 -16 768 -73 1133 -151 l102 -22 0 -436 0
-437 -37 -37 -38 -36 -255 14 c-140 8 -278 15 -306 15 l-51 0 -68 233 c-37
127 -72 240 -77 249 -11 22 -82 43 -238 71 -114 19 -159 22 -500 22 -385 0
-454 -5 -645 -45 -382 -80 -578 -274 -510 -505 34 -120 184 -223 448 -310 138
-45 368 -97 852 -190 607 -117 801 -172 1050 -295 280 -139 440 -300 512 -515
25 -74 27 -92 27 -250 0 -156 -2 -176 -26 -247 -38 -113 -91 -201 -177 -291
-259 -272 -667 -432 -1281 -501 -583 -66 -1402 -36 -2057 74 -175 30 -315 60
-366 79 l-27 11 0 417 0 417 37 38 37 38 296 0 296 0 89 -247 90 -248 53 -17
c29 -10 146 -32 260 -49 192 -29 231 -31 552 -36 274 -4 376 -2 497 11 574 61
833 220 833 511 0 116 -63 216 -190 300 -177 118 -383 171 -1285 336 -431 78
-603 123 -820 214 -265 111 -455 266 -540 440 -113 231 -98 535 37 746 175
274 570 476 1109 568 356 61 743 81 1184 61z m1961 -3912 c-47 -186 -189 -364
-356 -446 -89 -44 -166 -66 -263 -76 l-58 -6 103 98 c629 604 583 562 586 526
2 -19 -4 -62 -12 -96z"/>
</g>
</svg>
